<?xml version="1.0" encoding="UTF-8" standalone="no"?>
<svg
   xmlns:dc="http://purl.org/dc/elements/1.1/"
   xmlns:cc="http://creativecommons.org/ns#"
   xmlns:rdf="http://www.w3.org/1999/02/22-rdf-syntax-ns#"
   xmlns:svg="http://www.w3.org/2000/svg"
   xmlns="http://www.w3.org/2000/svg"
   xmlns:sodipodi="http://sodipodi.sourceforge.net/DTD/sodipodi-0.dtd"
   xmlns:inkscape="http://www.inkscape.org/namespaces/inkscape"
   width="256px"
   height="285px"
   viewBox="0 0 256 285"
   version="1.1"
   preserveAspectRatio="xMidYMid"
   id="svg6"
   sodipodi:docname="heroku-icon.svg"
   inkscape:version="1.0.1 (0767f8302a, 2020-10-17)">
  <metadata
     id="metadata12">
    <rdf:RDF>
      <cc:Work
         rdf:about="">
        <dc:format>image/svg+xml</dc:format>
        <dc:type
           rdf:resource="http://purl.org/dc/dcmitype/StillImage" />
      </cc:Work>
    </rdf:RDF>
  </metadata>
  <defs
     id="defs10" />
  <sodipodi:namedview
     pagecolor="#ffffff"
     bordercolor="#666666"
     borderopacity="1"
     objecttolerance="10"
     gridtolerance="10"
     guidetolerance="10"
     inkscape:pageopacity="0"
     inkscape:pageshadow="2"
     inkscape:window-width="819"
     inkscape:window-height="480"
     id="namedview8"
     showgrid="false"
     inkscape:zoom="0.86409179"
     inkscape:cx="187.44192"
     inkscape:cy="142.5"
     inkscape:window-x="26"
     inkscape:window-y="23"
     inkscape:window-maximized="0"
     inkscape:current-layer="svg6" />
  <g
     id="g4"
     style="fill:#ffffff">
    <path
       d="M230.4,0 C244.39552,0 255.77047,11.2315104 255.99657,25.1765997 L256,25.6 L256,258.844444 C256,272.839964 244.765005,284.214915 230.823296,284.441014 L230.4,284.444444 L25.6,284.444444 C11.60448,284.444444 0.2295296,273.209449 0.003430144,259.26774 L0,258.844444 L0,25.6 C0,11.60096 11.2349952,0.2294592 25.1767043,0.003429088 L25.6,0 L230.4,0 Z M230.4,14.2222222 L25.6,14.2222222 C19.426,14.2222222 14.3820625,19.169691 14.2259468,25.3068692 L14.2222222,25.6 L14.2222222,258.844444 C14.2222222,265.018444 19.169691,270.062382 25.3068692,270.218498 L25.6,270.222222 L230.4,270.222222 C236.5775,270.222222 241.618047,265.274753 241.774056,259.137575 L241.777778,258.844444 L241.777778,25.6 C241.777778,19.328 236.675556,14.2222222 230.4,14.2222222 Z M64,184.888889 L96,213.333333 L64,241.777778 L64,184.888889 Z M92.4444444,42.6666667 L92.4444444,123.416889 C106.645333,118.794667 126.496,113.777778 145.777778,113.777778 C163.36,113.777778 173.884444,120.689778 179.616,126.488889 C191.7248,138.738489 192.013158,154.309103 191.997015,156.385666 L191.996444,156.444444 L192,241.777778 L163.555556,241.777778 L163.555556,156.835556 C163.416889,150.197333 160.216889,142.222222 145.777778,142.222222 C117.146098,142.222222 85.0644658,156.478539 84.1117507,156.905113 L84.0924444,156.913778 L64,166.016 L64,42.6666667 L92.4444444,42.6666667 Z M192,42.6666667 C190.08,58.8231111 183.530667,74.3111111 170.666667,88.8888889 L170.666667,88.8888889 L142.222222,88.8888889 C153.400889,74.2222222 160.419556,58.7875556 163.555556,42.6666667 L163.555556,42.6666667 Z"
       fill="#430098"
       id="path2"
       style="fill:#ffffff" />
  </g>
</svg>
