<?xml version="1.0" encoding="UTF-8" standalone="no"?>
<svg
   xmlns:dc="http://purl.org/dc/elements/1.1/"
   xmlns:cc="http://creativecommons.org/ns#"
   xmlns:rdf="http://www.w3.org/1999/02/22-rdf-syntax-ns#"
   xmlns:svg="http://www.w3.org/2000/svg"
   xmlns="http://www.w3.org/2000/svg"
   xmlns:sodipodi="http://sodipodi.sourceforge.net/DTD/sodipodi-0.dtd"
   xmlns:inkscape="http://www.inkscape.org/namespaces/inkscape"
   class="ionicon"
   viewBox="0 0 512 512"
   version="1.1"
   id="svg10"
   sodipodi:docname="ionic.svg"
   inkscape:version="1.0.1 (3bc2e813f5, 2020-09-07)">
  <metadata
     id="metadata16">
    <rdf:RDF>
      <cc:Work
         rdf:about="">
        <dc:format>image/svg+xml</dc:format>
        <dc:type
           rdf:resource="http://purl.org/dc/dcmitype/StillImage" />
        <dc:title>Logo Ionic</dc:title>
      </cc:Work>
    </rdf:RDF>
  </metadata>
  <defs
     id="defs14" />
  <sodipodi:namedview
     pagecolor="#ffffff"
     bordercolor="#666666"
     borderopacity="1"
     objecttolerance="10"
     gridtolerance="10"
     guidetolerance="10"
     inkscape:pageopacity="0"
     inkscape:pageshadow="2"
     inkscape:window-width="1366"
     inkscape:window-height="704"
     id="namedview12"
     showgrid="false"
     inkscape:zoom="0.22754297"
     inkscape:cx="-360.57064"
     inkscape:cy="485.81469"
     inkscape:window-x="0"
     inkscape:window-y="0"
     inkscape:window-maximized="1"
     inkscape:current-layer="svg10"
     inkscape:document-rotation="0" />
  <title
     id="title2">Logo Ionic</title>
  <path
     d="M256 153.9A102.1 102.1 0 10358.1 256 102.23 102.23 0 00256 153.9z"
     id="path4"
     style="fill:#ffffff" />
  <circle
     cx="402.59"
     cy="116.45"
     r="46.52"
     id="circle6"
     style="fill:#ffffff" />
  <path
     d="M459.86 163.2l-1.95-4.28-3.11 3.52a70 70 0 01-28.06 19.32l-3 1.1 1.22 2.93A181.43 181.43 0 01439 256c0 100.92-82.1 183-183 183S73 356.92 73 256 155.08 73 256 73a180.94 180.94 0 0178.43 17.7l2.87 1.3 1.25-2.92A70.19 70.19 0 01359.21 62l3.67-2.93-4.17-2.07A221.61 221.61 0 00256 32C132.49 32 32 132.49 32 256s100.49 224 224 224 224-100.49 224-224a222.19 222.19 0 00-20.14-92.8z"
     id="path8"
     style="fill:#ffffff" />
</svg>
